<svg width="48" height="48" viewBox="0 0 48 48" fill="none" xmlns="http://www.w3.org/2000/svg">
<path fill-rule="evenodd" clip-rule="evenodd" d="M24 48C37.2548 48 48 37.2548 48 24C48 10.7452 37.2548 0 24 0C10.7452 0 0 10.7452 0 24C0 37.2548 10.7452 48 24 48ZM24 46C36.1503 46 46 36.1503 46 24C46 23.6655 45.9925 23.3327 45.9778 23.0018L22.5577 45.9535C23.0345 45.9843 23.5154 46 24 46ZM18.4483 45.2935L15.429 44.2679C16.4016 44.6797 17.4101 45.0236 18.4483 45.2935ZM14.9167 44.0432C14.4695 43.8402 14.0302 43.6227 13.5995 43.3912L43.3912 13.5995C43.6227 14.0302 43.8402 14.4695 44.0432 14.9167L14.9167 44.0432ZM11.5073 42.1114L42.1114 11.5073C40.5838 9.29686 38.6619 7.37972 36.4475 5.85749L5.85749 36.4475C7.37972 38.6619 9.29686 40.5838 11.5073 42.1114ZM4.77415 34.7024L34.7024 4.77415C33.1327 3.89849 31.4447 3.20948 29.6684 2.73716L2.73716 29.6684C3.20948 31.4447 3.89849 33.1327 4.77415 34.7024ZM24 2C25.131 2 26.2421 2.08535 27.3272 2.24996L2.24996 27.3272C2.08535 26.2421 2 25.131 2 24C2 11.8497 11.8497 2 24 2Z" fill="#19191A"/>
</svg>
